<svg width="32" height="33" viewBox="0 0 32 33" fill="none" xmlns="http://www.w3.org/2000/svg">
<path fill-rule="evenodd" clip-rule="evenodd" d="M13.5319 30.8261C11.5643 27.7539 2.38196 14.4637 8.97528 4.14222C9.04432 4.07318 8.97527 4.03866 8.87171 4.1077C5.69588 6.5241 -8.83702 15.948 13.3938 30.9642C13.5319 31.0333 13.6355 30.9642 13.5319 30.8261Z" fill="#009752"/>
<path fill-rule="evenodd" clip-rule="evenodd" d="M16.8804 0.655737C4.86741 10.4249 15.6031 29.2728 17.0875 31.7927C17.191 31.9653 17.4327 31.8963 17.5362 31.8273C41.9418 9.04408 20.1943 1.48421 17.3636 0.621215C17.1565 0.552175 16.9149 0.621217 16.8804 0.655737Z" fill="#009752"/>
<path fill-rule="evenodd" clip-rule="evenodd" d="M32.0002 7.24908V2.00204C32.0002 0.897398 31.1027 -0.00012207 29.998 -0.00012207H22.8524C22.8524 -0.00012207 22.7143 0.137958 22.8524 0.172478C28.7898 2.89955 31.0336 5.86828 31.7931 7.24908C31.8966 7.35263 32.0002 7.24908 32.0002 7.24908Z" fill="#009752"/>
<path fill-rule="evenodd" clip-rule="evenodd" d="M11.8058 0H2.00216C0.89752 0 0 0.89752 0 2.00216V10.6321C0 10.6321 0.138082 10.7702 0.207122 10.6667C3.17584 5.45416 9.45847 1.58792 11.7713 0.276161C11.9439 0.138081 11.8058 0 11.8058 0Z" fill="#009752"/>
<path fill-rule="evenodd" clip-rule="evenodd" d="M0 19.8143V30.0667C0 31.1713 0.89752 32.0688 2.00216 32.0688H12.6688C12.6688 32.0688 12.7724 31.8962 12.6343 31.7927C4.03884 26.3385 1.10464 21.7474 0.207122 19.8488C0.103562 19.7107 0 19.8143 0 19.8143Z" fill="#009752"/>
<path fill-rule="evenodd" clip-rule="evenodd" d="M21.4716 32.0689H29.998C31.1026 32.0689 32.0002 31.1714 32.0002 30.0668V20.6773C32.0002 20.6773 31.8966 20.6428 31.8621 20.7119C27.8578 26.6838 23.025 30.6881 21.4716 31.8618C21.368 31.9308 21.4716 32.0689 21.4716 32.0689Z" fill="#009752"/>
</svg>
