<svg width="138" height="40" viewBox="0 0 138 40" fill="none" xmlns="http://www.w3.org/2000/svg">
<path d="M68.541 17.7369V1.58449C68.541 0.0888936 69.5238 0.259823 70.8485 0.259823C72.1732 0.259823 73.156 0.0888936 73.156 1.58449V17.6942C73.156 21.3691 75.3353 23.4202 78.3265 23.4202C81.4031 23.4202 83.5397 21.3691 83.5397 17.6942V1.58449C83.5397 0.0888936 84.5225 0.259823 85.8472 0.259823C87.1719 0.259823 88.1547 0.0888936 88.1547 1.58449V17.7369C88.1547 23.933 83.967 27.5651 78.2838 27.5651C72.7714 27.5651 68.541 23.933 68.541 17.7369Z" fill="#003D6A"/>
<path d="M92.2996 25.984V1.96899C92.2996 0.729786 92.5559 0.430664 93.7952 0.430664H102.683C107.854 0.430664 111.486 3.76371 111.486 8.72054C111.486 13.7201 107.854 17.0532 102.683 17.0532H97.1282C96.9573 17.0532 96.8718 17.1386 96.8718 17.3095V26.0267C96.8718 27.5223 95.889 27.3941 94.5643 27.3941C93.2824 27.3087 92.2996 27.4796 92.2996 25.984ZM106.871 8.72054C106.871 6.28486 105.162 4.5756 102.427 4.5756H97.1709C97 4.5756 96.9145 4.66107 96.9145 4.83199V12.6091C96.9145 12.78 97 12.8655 97.1709 12.8655H102.427C105.204 12.8228 106.871 11.199 106.871 8.72054Z" fill="#003D6A"/>
<path d="M114.178 4.57586C112.725 4.57586 112.896 3.72123 112.896 2.48202C112.896 1.28555 112.725 0.388184 114.178 0.388184H127.852C129.305 0.388184 129.134 1.24281 129.134 2.48202C129.134 3.6785 129.305 4.57586 127.852 4.57586H123.493C123.323 4.57586 123.28 4.66132 123.28 4.83225V25.9843C123.28 27.4798 122.297 27.3517 120.972 27.3517C119.648 27.3517 118.665 27.5226 118.665 25.9843V4.83225C118.665 4.66132 118.579 4.57586 118.408 4.57586H114.178Z" fill="#003D6A"/>
<path d="M51.4485 13.2074C51.4485 13.592 51.4485 13.9339 51.4058 14.2757C51.363 18.3779 52.004 20.0445 52.004 20.0445C53.2432 23.6766 56.9181 23.292 56.9181 23.292C60.0802 23.3775 61.4904 20.0445 61.4904 20.0445C62.0031 18.4634 63.3278 19.2753 63.3278 19.2753L64.9943 20.0445C66.0626 20.5145 65.4217 21.711 65.4217 21.711C63.1142 27.8216 56.8754 27.4797 56.8754 27.4797C50.5939 27.6079 47.8163 23.3348 47.1754 20.0445C46.7481 17.8652 46.6626 15.6004 46.6626 14.2757C46.6626 13.592 46.7053 13.2074 46.7053 13.2074V14.2757C46.7053 14.2757 46.5344 10.729 47.1754 7.43871C47.8591 4.1484 50.5939 -0.082001 56.8754 0.00346164C56.8754 0.00346164 63.1142 -0.338389 65.4217 5.77219C65.4217 5.77219 66.0199 6.92594 64.9943 7.43871L63.3278 8.20788C63.3278 8.20788 62.0031 9.01977 61.4904 7.43871C61.4904 7.43871 60.0802 4.06294 56.9181 4.19113C56.9181 4.19113 53.2432 3.80655 52.004 7.43871C52.004 7.43871 51.2348 9.40436 51.4058 14.2757V13.2074H51.4485Z" fill="#003D6A"/>
<path d="M132.51 1.75539C132.51 0.259798 133.493 0.430721 134.817 0.430721C136.142 0.430721 137.125 0.302529 137.125 1.75539V25.9841C137.125 27.4797 136.142 27.3087 134.817 27.3087C133.493 27.3087 132.51 27.4369 132.51 25.9841V1.75539Z" fill="#003D6A"/>
<path d="M49.0128 39.7008H48.3718V32.5647H49.0128V39.7008Z" fill="#003D6A" stroke="#003C4B" stroke-width="0.320485" stroke-miterlimit="10"/>
<path d="M60.6784 39.7008H60.0374L55.5079 33.5475H55.4652V39.7008H54.8242V32.5647H55.4652L59.9947 38.718H60.0374V32.6074H60.6784V39.7008Z" fill="#003D6A" stroke="#003C4B" stroke-width="0.320485" stroke-miterlimit="10"/>
<path d="M71.9167 38.8462C71.7458 39.0599 71.4039 39.3163 70.9339 39.4872C70.4639 39.7009 69.8656 39.7863 69.1392 39.7863C68.1991 39.7863 67.4299 39.4872 66.8317 38.9317C66.2334 38.3762 65.9343 37.6497 65.9343 36.7524V35.4705C65.9343 34.5731 66.2334 33.8467 66.789 33.2912C67.3445 32.7356 68.0709 32.4365 68.9683 32.4365C69.8229 32.4365 70.5066 32.6075 70.9766 32.992C71.4467 33.3766 71.7458 33.8894 71.8313 34.4876V34.5304H71.233C71.1476 34.0603 70.9339 33.6757 70.5493 33.3766C70.2075 33.0775 69.652 32.9493 68.9683 32.9493C68.2418 32.9493 67.6863 33.163 67.2163 33.633C66.789 34.1031 66.5753 34.7013 66.5753 35.4277V36.7524C66.5753 37.4788 66.789 38.1198 67.259 38.5898C67.729 39.0599 68.3273 39.3163 69.0965 39.3163C69.6092 39.3163 70.0793 39.2308 70.4639 39.1026C70.8484 38.9744 71.1048 38.8462 71.233 38.6753V36.7951H69.0965V36.3251H71.874V38.8462H71.9167Z" fill="#003D6A" stroke="#003C4B" stroke-width="0.320485" stroke-miterlimit="10"/>
<path d="M81.8305 36.2396H77.9847V39.1881H82.386V39.7008H77.3438V32.5647H82.386V33.0775H77.9847V35.7695H81.8305V36.2396Z" fill="#003D6A" stroke="#003C4B" stroke-width="0.320485" stroke-miterlimit="10"/>
<path d="M92.5988 39.7008H91.9579L87.4283 33.5475H87.3856V39.7008H86.7446V32.5647H87.3856L91.9151 38.718H91.9579V32.6074H92.5988V39.7008Z" fill="#003D6A" stroke="#003C4B" stroke-width="0.320485" stroke-miterlimit="10"/>
<path d="M98.923 39.7008H98.282V32.5647H98.923V39.7008Z" fill="#003D6A" stroke="#003C4B" stroke-width="0.320485" stroke-miterlimit="10"/>
<path d="M109.649 36.2396H105.803V39.1881H110.204V39.7008H105.162V32.5647H110.204V33.0775H105.803V35.7695H109.649V36.2396Z" fill="#003D6A" stroke="#003C4B" stroke-width="0.320485" stroke-miterlimit="10"/>
<path d="M115.204 36.496V39.7436H114.563V32.6074H117.255C118.109 32.6074 118.75 32.7784 119.22 33.1202C119.691 33.4621 119.904 33.9321 119.904 34.5731C119.904 34.9576 119.776 35.2995 119.52 35.5986C119.263 35.8977 118.921 36.1114 118.494 36.2396C119.007 36.3678 119.349 36.5387 119.562 36.8378C119.776 37.137 119.904 37.4788 119.904 37.9061V38.5898C119.904 38.8035 119.947 39.0171 119.99 39.1881C120.032 39.359 120.161 39.5299 120.289 39.6154V39.7436H119.605C119.477 39.6154 119.391 39.4444 119.306 39.2308C119.263 39.0171 119.22 38.8035 119.22 38.5898V37.9488C119.22 37.5215 119.05 37.1797 118.75 36.9233C118.451 36.6669 117.981 36.5387 117.426 36.5387H115.204V36.496ZM115.204 35.9832H117.169C117.896 35.9832 118.409 35.855 118.75 35.5986C119.092 35.3422 119.263 35.0004 119.263 34.5303C119.263 34.0603 119.092 33.7184 118.75 33.462C118.409 33.2057 117.939 33.0775 117.255 33.0775H115.204V35.9832Z" fill="#003D6A" stroke="#003C4B" stroke-width="0.320485" stroke-miterlimit="10"/>
<path d="M125.545 30.77H126.357V30.8128L124.989 32.0947H124.391L125.545 30.77ZM125.16 39.7009H124.519V32.5647H125.16V39.7009Z" fill="#003D6A" stroke="#003C4B" stroke-width="0.320485" stroke-miterlimit="10"/>
<path d="M135.202 37.7352H131.527L130.715 39.7436H130.031L133.065 32.6074H133.706L136.74 39.7436H136.057L135.202 37.7352ZM131.783 37.1797H135.031L133.45 33.3339H133.407L131.783 37.1797Z" fill="#003D6A" stroke="#003C4B" stroke-width="0.320485" stroke-miterlimit="10"/>
<path fill-rule="evenodd" clip-rule="evenodd" d="M16.7507 38.4617C14.315 34.6586 2.94849 18.207 11.1102 5.43038C11.1956 5.34491 11.1102 5.30219 10.982 5.38765C7.0507 8.37884 -10.9392 20.0445 16.5798 38.6326C16.7507 38.7181 16.8789 38.6326 16.7507 38.4617Z" fill="#009752"/>
<path fill-rule="evenodd" clip-rule="evenodd" d="M20.8957 1.11446C6.02524 13.2074 19.3147 36.5387 21.1521 39.6581C21.2803 39.8718 21.5795 39.7863 21.7076 39.7009C51.9187 11.4982 24.998 2.14001 21.494 1.07172C21.2376 0.986261 20.9385 1.07173 20.8957 1.11446Z" fill="#009752"/>
<path fill-rule="evenodd" clip-rule="evenodd" d="M39.6119 9.27632V2.78115C39.6119 1.41375 38.5009 0.302734 37.1335 0.302734H28.2881C28.2881 0.302734 28.1172 0.47366 28.2881 0.516391C35.6379 3.89217 38.4155 7.56707 39.3555 9.27632C39.4837 9.40452 39.6119 9.27632 39.6119 9.27632Z" fill="#009752"/>
<path fill-rule="evenodd" clip-rule="evenodd" d="M14.6141 0.302734H2.47842C1.11102 0.302734 0 1.41375 0 2.78115V13.464C0 13.464 0.170928 13.6349 0.256391 13.5067C3.93129 7.05429 11.7084 2.26838 14.5714 0.644586C14.785 0.473661 14.6141 0.302734 14.6141 0.302734Z" fill="#009752"/>
<path fill-rule="evenodd" clip-rule="evenodd" d="M0 24.8303V37.5215C0 38.8889 1.11102 40 2.47842 40H15.6824C15.6824 40 15.8106 39.7863 15.6397 39.6581C4.99957 32.9065 1.36741 27.2233 0.256391 24.8731C0.128197 24.7021 0 24.8303 0 24.8303Z" fill="#009752"/>
<path fill-rule="evenodd" clip-rule="evenodd" d="M26.5789 40H37.1336C38.501 40 39.612 38.8889 39.612 37.5215V25.8986C39.612 25.8986 39.4838 25.8559 39.4411 25.9414C34.4842 33.3339 28.5019 38.2907 26.5789 39.7436C26.4508 39.829 26.5789 40 26.5789 40Z" fill="#009752"/>
</svg>
