<svg width="215" height="47" viewBox="0 0 215 47" fill="none" xmlns="http://www.w3.org/2000/svg">
<g clip-path="url(#clip0_806_735)">
<path fill-rule="evenodd" clip-rule="evenodd" d="M13.8431 23.5004L22.9676 32.6783L11.5383 44.1796C10.3698 45.3501 8.75468 46.0752 6.96961 46.0768C3.39986 46.0805 0.503366 43.1885 0.500003 39.6196C0.498398 37.844 1.21301 36.2348 2.36456 35.0588L13.8431 23.5004ZM32.0929 23.4959L38.9663 16.5794L34.3621 11.9478L34.3753 11.9346C33.2175 10.7652 32.5025 9.15642 32.5041 7.38129C32.5058 5.70704 33.1439 4.18183 34.1891 3.03479L22.97 14.3197L32.0929 23.4959Z" fill="#009844"/>
<path fill-rule="evenodd" clip-rule="evenodd" d="M38.9721 30.4157L32.0929 23.4959L22.97 14.3197L11.5383 2.82087C10.3698 1.6499 8.7543 0.924902 6.96961 0.923221C3.40032 0.919934 0.503366 3.81154 0.500003 7.38129C0.498398 9.15642 1.21339 10.7652 2.36456 11.9413L22.97 32.6758L34.1916 43.9682L34.4018 44.1796C35.5704 45.3501 37.1854 46.0751 38.9737 46.0768C40.7589 46.0751 42.3739 45.3501 43.5424 44.1796L43.7526 43.9682L54.9717 32.6783L45.8472 23.5004L38.9721 30.4157ZM66.1933 3.03479L54.9088 14.2539L64.097 23.4959L70.9705 16.5794L77.851 23.5004L86.9758 32.6783L98.41 44.1796C99.5786 45.3501 101.194 46.0751 102.979 46.0768C106.548 46.0805 109.445 43.1885 109.448 39.6196C109.45 37.844 108.735 36.2348 107.584 35.0588L96.097 23.5L86.9758 14.3222L75.7601 3.03563L75.5465 2.82087C74.378 1.6499 72.7626 0.92452 70.9746 0.923221C69.1899 0.92452 67.5745 1.6499 66.4059 2.82087L66.1933 3.03479ZM148.909 44.6811V33.3068H153.068V30.0391H148.909H147.797C146.223 30.0391 144.935 31.3269 144.935 32.9009V33.3068V37.3599V44.6811H148.909ZM159.106 39.1061V37.2089V30.0391H155.018V38.4784V39.236C155.018 42.6158 157.783 44.9033 161.163 44.9033H162.193C165.573 44.9033 168.338 42.6155 168.338 39.236V38.4784V30.0391H164.25V37.2089V39.1061L164.246 39.236C164.178 40.5904 163.049 41.6774 161.678 41.6774C160.306 41.6774 159.177 40.5904 159.106 39.236V39.1061ZM174.479 38.6348V36.0333C174.479 34.3736 175.836 33.0164 177.496 33.0164C178.892 33.0164 180.074 33.976 180.414 35.2682H184.415C183.843 32.1553 181.101 29.7776 177.829 29.7776H177.164C168.186 29.7776 168.18 44.8904 177.164 44.8904H177.829C181.144 44.8904 183.917 42.4483 184.437 39.2737H180.445C180.15 40.6292 178.937 41.6518 177.496 41.6518C175.836 41.6518 174.479 40.2945 174.479 38.6348ZM196.069 35.8003H190.034C190.034 34.1407 191.391 32.7834 193.052 32.7834C194.711 32.7834 196.069 34.1414 196.069 35.8003ZM190.034 38.2529H196.211H200.079V36.4732C200.079 32.7904 197.067 29.7776 193.384 29.7776H192.719C189.036 29.7776 186.023 32.7904 186.023 36.4732V37.1791V38.195C186.023 41.8777 189.036 44.8904 192.719 44.8904H193.384C196.4 44.8904 199.114 42.9072 199.996 40.1658H195.986C195.451 41.2015 194.274 41.9079 193.051 41.9079C191.392 41.9079 190.034 40.5507 190.034 38.8909V38.2529ZM157.792 13.0986H151.757C151.757 11.4389 153.114 10.0817 154.775 10.0817C156.435 10.0817 157.792 11.4397 157.792 13.0986ZM151.757 15.5511H157.934H161.803V13.7714C161.803 10.0887 158.79 7.07588 155.107 7.07588H154.442C150.759 7.07588 147.747 10.0887 147.747 13.7714V14.4773V15.4932C147.747 19.1759 150.759 22.1887 154.442 22.1887H155.107C158.123 22.1887 160.837 20.2054 161.719 17.4641H157.709C157.174 18.4998 155.997 19.2061 154.774 19.2061C153.115 19.2061 151.757 17.8489 151.757 16.1892V15.5511ZM142.602 21.8469V10.4727H146.762V7.20497H142.602H141.49C139.916 7.20497 138.629 8.49272 138.629 10.0668V10.4727V14.5258V21.8469H142.602ZM122.8 2.00369H137.915V5.88337H132.479V21.8469H128.236V5.88337H122.8V2.00369ZM128.039 33.0271C128.039 30.4033 130.185 28.2566 132.809 28.2566H133.052C135.222 28.2566 137.065 29.7242 137.639 31.7158H142.136C141.342 26.7979 137.611 24.6267 133.164 24.6267H132.698C129.384 24.6267 126.468 26.416 124.869 29.0763C123.341 31.6165 123.091 36.2303 124.182 39.0432C125.505 42.4569 128.831 44.8938 132.698 44.8938H133.164C137.644 44.8938 141.397 42.4276 142.153 37.6102H137.69C137.184 39.6998 135.292 41.264 133.052 41.264H132.809C130.185 41.264 128.039 39.1172 128.039 36.4934V33.0271ZM205.992 34.0616C205.968 33.4595 206.48 32.9969 207.146 32.7763C208.306 32.3928 209.935 32.7424 210.023 34.3682C211.344 34.3682 212.664 34.3682 213.984 34.3682C214.012 30.119 208.579 29.1474 205.347 30.2121C204.274 30.5659 203.219 31.1928 202.564 32.1995C201.648 33.6076 201.716 35.6244 202.744 36.9614C204.869 39.7288 210.272 37.9123 210.306 40.3801C210.384 41.3745 209.517 42.0134 208.341 42.0862C207.22 42.1553 205.894 41.6468 205.709 40.1443C204.341 40.1443 202.974 40.1443 201.607 40.1443C201.859 41.8743 202.637 43.2195 204.163 44.0174C206.302 45.1362 210.401 45.1565 212.441 43.839C215.083 42.135 215.417 37.7836 212.057 36.457C210.036 35.6584 207.363 35.9141 206.376 35.0452C206.112 34.8126 205.968 34.4986 205.992 34.0616ZM167.754 11.2775C167.731 10.6754 168.243 10.2128 168.909 9.99225C170.068 9.60873 171.697 9.95831 171.786 11.5841C173.106 11.5841 174.426 11.5841 175.747 11.5841C175.775 7.3349 170.342 6.36334 167.109 7.42799C166.036 7.78178 164.981 8.40872 164.326 9.41544C163.411 10.8236 163.479 12.8404 164.506 14.1773C166.632 16.9447 172.034 15.1283 172.069 17.5961C172.147 18.5904 171.279 19.2293 170.104 19.3021C168.982 19.3712 167.657 18.8627 167.472 17.3602C166.104 17.3602 164.737 17.3602 163.369 17.3602C163.622 19.0902 164.399 20.4355 165.925 21.2333C168.064 22.3521 172.163 22.3725 174.204 21.0549C176.845 19.3509 177.179 14.9996 173.819 13.6729C171.799 12.8743 169.125 13.13 168.139 12.2611C167.875 12.0285 167.731 11.7145 167.754 11.2775Z" fill="#0B0F9F"/>
<path fill-rule="evenodd" clip-rule="evenodd" d="M64.097 23.4958L54.9088 14.2538L43.7551 3.03467L43.5424 2.82074C42.3739 1.64978 40.7585 0.924777 38.9705 0.923096C37.1858 0.924395 35.5704 1.64978 34.4018 2.82074L34.1891 3.03467C33.1439 4.18171 32.5058 5.70692 32.5042 7.38117C32.5025 9.1563 33.2175 10.7651 34.3754 11.9345L34.3621 11.9477L38.9664 16.5793L45.8472 23.5003L54.9717 32.6781L66.1933 43.9655C65.1481 42.8185 64.51 41.2933 64.5083 39.6195C64.5067 37.8439 65.2213 36.2347 66.3728 35.0587L70.98 30.4193L64.097 23.4958Z" fill="#FFB61B"/>
<path fill-rule="evenodd" clip-rule="evenodd" d="M86.9756 14.322L96.0968 23.4999L107.584 11.9411C108.735 10.7651 109.45 9.1563 109.448 7.38117C109.445 3.81141 106.548 0.919812 102.979 0.923099C101.194 0.92478 99.5784 1.64978 98.4098 2.82075L86.9756 14.322ZM70.9797 30.4193L66.3726 35.0587C65.2211 36.2347 64.5065 37.8439 64.5081 39.6195C64.5097 41.2933 65.1478 42.8185 66.1931 43.9655L66.4057 44.1794C67.5743 45.35 69.1893 46.075 70.9777 46.0767C72.7628 46.075 74.3778 45.35 75.5463 44.1794L75.7599 43.9643L86.9756 32.6781L77.8507 23.5003L70.9797 30.4193Z" fill="#E3007A"/>
</g>
<defs>
<clipPath id="clip0_806_735">
<rect width="215" height="47" fill="white"/>
</clipPath>
</defs>
</svg>
