<svg width="212" height="65" viewBox="0 0 212 65" fill="none" xmlns="http://www.w3.org/2000/svg">
<g clip-path="url(#clip0_806_724)">
<path d="M113.538 29.6699C114.482 30.2358 115.237 30.8018 115.803 31.7448C116.37 32.6877 116.558 33.6308 116.558 34.7626C116.558 35.8945 116.37 36.8376 115.803 37.7807C115.237 38.7239 114.482 39.2898 113.538 39.8556C112.595 40.4216 111.651 40.6101 110.518 40.6101C109.386 40.6101 108.442 40.4216 107.499 39.8556C106.555 39.2898 105.8 38.7239 105.233 37.7807C104.667 36.8376 104.479 35.8945 104.479 34.7626C104.479 33.6308 104.667 32.6877 105.233 31.7448C105.8 30.8018 106.555 30.2358 107.499 29.6699C108.442 29.104 109.386 28.9155 110.518 28.9155C111.651 28.9155 112.595 29.2927 113.538 29.6699ZM111.839 37.2148C112.217 37.0261 112.595 36.6488 112.783 36.2716C112.972 35.8945 113.161 35.3286 113.161 34.7626C113.161 34.1967 112.972 33.6308 112.783 33.2535C112.595 32.8765 112.217 32.4989 111.839 32.3108C111.462 32.122 111.085 31.9335 110.518 31.9335C109.952 31.9335 109.575 32.122 109.197 32.3108C108.819 32.4989 108.442 32.8765 108.253 33.2535C108.065 33.6308 107.687 34.1967 107.687 34.7626C107.687 35.3286 107.876 35.8945 108.065 36.2716C108.253 36.6488 108.631 37.0261 109.009 37.2148C109.386 37.4035 109.952 37.592 110.329 37.592C110.896 37.592 111.273 37.4035 111.839 37.2148ZM127.507 29.4826C128.073 29.8598 128.639 30.4256 129.017 31.18C129.395 31.9347 129.583 32.6888 129.583 33.6319V38.3477C129.583 39.4796 128.639 40.4227 127.507 40.4227H126.374C126.186 40.4227 125.997 40.234 125.997 40.0455V34.3866C125.997 33.8207 125.808 33.2547 125.43 32.8775C125.053 32.5003 124.676 32.3119 124.11 32.3119C123.354 32.3119 122.788 32.5003 122.411 33.0662C122.033 33.6319 121.844 34.3866 121.844 35.3296V38.3477C121.844 39.4796 120.901 40.4227 119.768 40.4227H118.635C118.447 40.4227 118.258 40.234 118.258 40.0455V29.671C118.258 29.4826 118.447 29.2939 118.635 29.2939H121.467C121.655 29.2939 121.844 29.4826 121.844 29.671V30.4256C122.221 30.0485 122.788 29.671 123.354 29.4826C123.92 29.2939 124.487 29.1054 125.242 29.1054C126.186 28.9166 126.94 29.1054 127.507 29.4826ZM138.832 40.4227C138.454 40.6115 137.888 40.6115 137.322 40.6115C136 40.6115 134.868 40.2342 134.113 39.4796C133.358 38.7253 132.981 37.5934 132.981 36.273V32.1234H131.282C131.093 32.1234 130.904 31.9347 130.904 31.7462V29.6713C130.904 29.4826 131.093 29.2941 131.282 29.2941H132.981V26.4645C132.981 26.276 133.169 26.0873 133.358 26.0873H136C136.189 26.0873 136.377 26.276 136.377 26.4645V29.2941H139.209C139.398 29.2941 139.586 29.4826 139.586 29.6713V30.0485C139.586 31.1803 138.643 32.1234 137.51 32.1234H136.377V35.8956C136.377 37.0275 136.944 37.4047 137.888 37.4047C138.076 37.4047 138.454 37.4047 138.643 37.2162C138.832 37.2162 139.02 37.0275 139.02 37.0275C139.209 37.0275 139.398 37.0275 139.398 37.2162L139.964 39.2909C139.964 39.4796 139.964 39.6683 139.775 39.6683C139.586 40.0455 139.209 40.2342 138.832 40.4227ZM144.306 35.7058C144.118 35.7058 144.118 35.7058 144.306 35.7058C144.306 36.4601 144.683 36.8376 145.061 37.2148C145.438 37.592 146.005 37.7807 146.571 37.7807C147.515 37.7807 148.27 37.4035 148.835 36.6488C148.835 36.4601 149.025 36.4601 149.214 36.4601L151.478 37.026C151.667 37.026 151.856 37.4035 151.667 37.592C151.29 38.5351 150.534 39.2898 149.78 39.6669C148.835 40.2328 147.703 40.6101 146.382 40.6101C145.249 40.6101 144.306 40.4216 143.551 39.8556C142.607 39.2898 142.041 38.7239 141.475 37.7807C140.909 36.8376 140.72 35.8945 140.72 34.7626C140.72 33.6308 140.909 32.6877 141.475 31.7448C142.041 30.8018 142.607 30.2358 143.551 29.6699C144.495 29.104 145.438 28.9155 146.571 28.9155C147.515 28.9155 148.647 29.104 149.402 29.6699C150.157 30.2358 150.912 30.8018 151.478 31.7448C152.044 32.6877 152.233 33.6308 152.233 34.7626V35.3286C152.233 35.5171 152.044 35.7058 151.856 35.7058H144.306ZM145.061 32.3108C144.683 32.4989 144.306 33.0648 144.118 33.4424V33.6308H148.458C148.458 33.6308 148.647 33.6308 148.647 33.4424C148.458 32.8765 148.27 32.4989 147.892 32.3108C147.515 31.9335 146.948 31.9335 146.571 31.9335C146.005 31.7448 145.627 31.9335 145.061 32.3108ZM190.36 35.7058C190.36 36.4601 190.737 36.8376 191.114 37.2148C191.492 37.592 192.058 37.7807 192.624 37.7807C193.568 37.7807 194.323 37.4035 194.89 36.6488C194.89 36.4601 195.078 36.4601 195.267 36.4601L197.532 37.026C197.72 37.026 197.909 37.4035 197.721 37.592C197.343 38.5351 196.588 39.2898 195.833 39.6669C194.89 40.2328 193.757 40.6101 192.436 40.6101C191.304 40.6101 190.36 40.4216 189.605 39.8556C188.661 39.2898 188.095 38.7239 187.528 37.7807C186.962 36.8376 186.773 35.8945 186.773 34.7626C186.773 33.6308 186.962 32.6877 187.528 31.7448C188.095 30.8018 188.661 30.2358 189.605 29.6699C190.548 29.104 191.492 28.9155 192.624 28.9155C193.568 28.9155 194.512 29.104 195.456 29.6699C196.4 30.2358 196.966 30.8018 197.532 31.7448C198.098 32.6877 198.287 33.6308 198.287 34.7626V35.3286C198.287 35.5171 198.098 35.7058 197.909 35.7058H190.36ZM191.114 32.3108C190.737 32.4989 190.36 33.0648 190.171 33.4424V33.6308H194.512C194.512 33.6308 194.701 33.6308 194.701 33.4424C194.512 32.8765 194.323 32.4989 193.946 32.3108C193.568 31.9335 193.002 31.9335 192.624 31.9335C192.058 31.7448 191.681 31.9335 191.114 32.3108ZM157.139 40.0447L152.987 29.8589C152.798 29.6701 152.987 29.293 153.364 29.293H156.196C156.385 29.293 156.573 29.4818 156.573 29.4818L159.027 36.0835L161.481 29.4818C161.481 29.293 161.669 29.293 161.858 29.293H164.69C165.067 29.293 165.256 29.6701 165.067 29.8589L161.292 39.1013C160.915 39.856 160.16 40.4219 159.405 40.4219H157.517C157.329 40.2332 157.139 40.2332 157.139 40.0447ZM167.333 29.293H170.164C170.352 29.293 170.541 29.4818 170.541 29.6701V38.3469C170.541 39.4788 169.598 40.4219 168.465 40.4219H167.333C167.144 40.4219 166.955 40.2332 166.955 40.0447V29.6701C166.955 29.4818 167.144 29.293 167.333 29.293ZM181.3 39.8566V39.2906C180.356 40.0453 179.224 40.4224 177.903 40.4224C176.959 40.4224 176.015 40.2337 175.26 39.6681C174.505 39.1021 173.751 38.5362 173.373 37.593C172.807 36.65 172.618 35.7066 172.618 34.575C172.618 33.4432 172.807 32.5001 173.373 31.5573C173.939 30.4254 174.694 29.671 175.827 29.2935C176.582 28.9163 177.337 28.7279 178.091 28.7279C179.413 28.7279 180.546 29.1051 181.3 29.8594V25.3324C181.3 25.1439 181.489 24.9552 181.678 24.9552H184.509C184.698 24.9552 184.887 25.1439 184.887 25.3324V37.7815C184.887 38.9134 183.942 39.8566 182.81 39.8566H181.678C181.489 40.2337 181.3 40.0453 181.3 39.8566ZM179.979 37.2159C180.356 37.0272 180.734 36.65 180.923 36.2726C181.112 35.8953 181.3 35.3294 181.3 34.7637C181.3 34.1979 181.112 33.8203 180.923 33.2545C180.734 32.8773 180.356 32.5001 179.979 32.3116C179.602 32.1232 179.035 31.9345 178.658 31.9345C177.903 31.9345 177.337 32.1232 176.77 32.6888C176.204 33.2545 176.015 33.8203 176.015 34.7637C176.015 35.5181 176.204 36.2726 176.77 36.8384C177.337 37.4043 177.903 37.593 178.658 37.593C179.224 37.593 179.602 37.4043 179.979 37.2159ZM208.48 29.6699C209.424 30.2358 210.178 30.8018 210.745 31.7448C211.311 32.6877 211.5 33.6308 211.5 34.7626C211.5 35.8945 211.311 36.8376 210.745 37.7807C210.178 38.7239 209.424 39.2898 208.48 39.8556C207.536 40.4216 206.592 40.6101 205.46 40.6101C204.328 40.6101 203.384 40.4216 202.44 39.8556C201.496 39.2898 200.741 38.7239 200.175 37.7807C199.609 36.8376 199.42 35.8945 199.42 34.7626C199.42 33.6308 199.609 32.6877 200.175 31.7448C200.741 30.8018 201.496 30.2358 202.44 29.6699C203.384 29.104 204.328 28.9155 205.46 28.9155C206.592 28.9155 207.725 29.2927 208.48 29.6699ZM206.781 37.2148C207.159 37.0261 207.536 36.6488 207.725 36.2716C207.914 35.8945 208.102 35.3286 208.102 34.7626C208.102 34.1967 207.914 33.6308 207.725 33.2535C207.536 32.8765 207.159 32.4989 206.781 32.3108C206.404 32.122 206.026 31.9335 205.46 31.9335C204.894 31.9335 204.516 32.122 204.139 32.3108C203.762 32.4989 203.384 32.8765 203.195 33.2535C203.006 33.6308 202.818 34.1967 202.818 34.7626C202.818 35.3286 203.006 35.8945 203.195 36.2716C203.384 36.6488 203.762 37.0261 204.139 37.2148C204.516 37.4035 205.082 37.592 205.46 37.592C206.026 37.592 206.404 37.4035 206.781 37.2148ZM120.523 49.6645C121.089 50.0421 121.655 50.6076 122.033 51.3623C122.411 52.117 122.599 52.8714 122.599 53.8144V58.3416C122.599 59.4733 121.655 60.4165 120.523 60.4165H119.579C119.391 60.4165 119.202 60.2278 119.202 60.039V54.3804C119.202 53.8144 119.013 53.2485 118.635 52.8714C118.258 52.4942 117.881 52.3054 117.315 52.3054C116.559 52.3054 115.993 52.4942 115.616 53.0601C115.238 53.6257 115.049 54.3804 115.049 55.3235V58.3416C115.049 59.4733 114.106 60.4165 112.973 60.4165H112.03C111.84 60.4165 111.651 60.2278 111.651 60.039V45.8921C111.651 45.7034 111.84 45.5149 112.03 45.5149H114.86C115.049 45.5149 115.238 45.7034 115.238 45.8921V50.4191C116.182 49.4761 117.315 49.0987 118.635 49.0987C119.202 49.0987 119.957 49.2874 120.523 49.6645ZM133.547 49.8541C134.49 50.42 135.245 50.9859 135.811 51.929C136.377 52.8722 136.566 53.8152 136.566 54.9471C136.566 56.079 136.377 57.0218 135.811 57.9652C135.245 58.9083 134.49 59.4743 133.547 60.0401C132.603 60.6058 131.659 60.7945 130.527 60.7945C129.394 60.7945 128.451 60.6058 127.506 60.0401C126.563 59.4743 125.808 58.9083 125.242 57.9652C124.675 57.0218 124.486 56.079 124.486 54.9471C124.486 53.8152 124.675 52.8722 125.242 51.929C125.808 50.9859 126.563 50.42 127.506 49.8541C128.451 49.2882 129.394 49.0995 130.527 49.0995C131.47 49.0995 132.603 49.4769 133.547 49.8541ZM131.659 57.3993C132.037 57.2105 132.414 56.8333 132.603 56.4562C132.791 56.079 132.98 55.5131 132.98 54.9471C132.98 54.3812 132.791 53.8152 132.603 53.4381C132.414 53.0606 132.037 52.6835 131.659 52.495C131.281 52.3063 130.904 52.1176 130.338 52.1176C129.771 52.1176 129.394 52.3063 129.017 52.495C128.639 52.6835 128.262 53.0606 128.072 53.4381C127.884 53.8152 127.695 54.3812 127.695 54.9471C127.695 55.5131 127.884 56.079 128.072 56.4562C128.262 56.8333 128.639 57.2105 129.017 57.3993C129.394 57.5877 129.961 57.7765 130.338 57.7765C130.904 57.7765 131.281 57.5877 131.659 57.3993ZM170.164 44.7594C170.542 45.1366 170.73 45.7026 170.73 46.0797C170.73 46.6456 170.542 47.0228 170.164 47.4003C169.786 47.7775 169.22 47.9662 168.654 47.9662C168.088 47.9662 167.522 47.7775 167.144 47.4003C166.767 47.0228 166.578 46.6456 166.578 46.0797C166.578 45.5141 166.767 45.1366 167.144 44.7594C167.522 44.3822 168.088 44.1935 168.654 44.1935C169.22 44.1935 169.786 44.3822 170.164 44.7594ZM170.164 25.0039C170.542 25.381 170.73 25.947 170.73 26.3244C170.73 26.8901 170.542 27.2676 170.164 27.6448C169.786 28.022 169.22 28.2107 168.654 28.2107C168.088 28.2107 167.522 28.022 167.144 27.6448C166.767 27.2676 166.578 26.8901 166.578 26.3244C166.578 25.7586 166.767 25.381 167.144 25.0039C167.522 24.6267 168.088 24.438 168.654 24.438C169.22 24.438 169.786 24.6267 170.164 25.0039ZM167.332 49.4758H170.164C170.352 49.4758 170.541 49.6643 170.541 49.853V58.3412C170.541 59.4731 169.597 60.4163 168.465 60.4163H167.521C167.332 60.4163 167.144 60.2275 167.144 60.039V49.853C166.955 49.6643 167.144 49.4758 167.332 49.4758ZM147.891 49.8536C148.647 50.4191 149.402 50.9851 149.779 51.9282C150.346 52.8714 150.534 53.8148 150.534 54.9463C150.534 56.0782 150.346 57.0212 149.779 57.9644C149.213 59.0962 148.458 59.8509 147.326 60.228C146.57 60.6052 145.815 60.7939 144.871 60.6052C143.551 60.6052 142.607 60.228 141.663 59.4733V61.9256C141.663 63.0573 140.719 64.0005 139.586 64.0005H138.643C138.454 64.0005 138.266 63.8118 138.266 63.6233V49.8536C138.266 49.6648 138.454 49.4761 138.643 49.4761H141.475C141.663 49.4761 141.852 49.6648 141.852 49.8536V50.4191C142.795 49.6648 143.928 49.2876 145.249 49.2876C146.193 49.0989 147.137 49.2876 147.891 49.8536ZM146.381 57.0212C146.948 56.4553 147.137 55.8897 147.137 54.9463C147.137 54.1919 146.948 53.4372 146.381 52.8714C145.815 52.3057 145.249 52.117 144.494 52.117C143.928 52.117 143.551 52.3057 143.173 52.4942C142.795 52.6829 142.418 53.0601 142.229 53.4372C142.041 53.8148 141.852 54.3804 141.852 54.9463C141.852 55.5122 142.041 56.0782 142.229 56.4553C142.418 56.8328 142.795 57.2099 143.173 57.3984C143.551 57.5872 144.117 57.7759 144.494 57.7759C145.249 57.7759 146.004 57.5872 146.381 57.0212ZM162.237 49.8536C162.991 50.4191 163.747 50.9851 164.124 51.9282C164.69 52.8714 164.879 53.8148 164.879 54.9463C164.879 56.0782 164.69 57.0212 164.124 57.9644C163.558 59.0962 162.803 59.8509 161.671 60.228C160.915 60.6052 160.161 60.7939 159.217 60.6052C157.896 60.6052 156.952 60.228 156.008 59.4733V61.9256C156.008 63.0573 155.065 64.0005 153.932 64.0005H152.989C152.8 64.0005 152.61 63.8118 152.61 63.6233V49.8536C152.61 49.6648 152.8 49.4761 152.989 49.4761H155.819C156.008 49.4761 156.198 49.6648 156.198 49.8536V50.4191C157.141 49.6648 158.274 49.2876 159.594 49.2876C160.538 49.0989 161.293 49.2876 162.237 49.8536ZM160.727 57.0212C161.293 56.4553 161.482 55.8897 161.482 54.9463C161.482 54.1919 161.293 53.4372 160.727 52.8714C160.161 52.3057 159.594 52.117 158.839 52.117C158.274 52.117 157.896 52.3057 157.518 52.4942C157.141 52.6829 156.763 53.0601 156.575 53.4372C156.386 53.8148 156.198 54.3804 156.198 54.9463C156.198 55.5122 156.386 56.0782 156.575 56.4553C156.763 56.8328 157.141 57.2099 157.518 57.3984C157.896 57.5872 158.462 57.7759 158.839 57.7759C159.594 57.7759 160.161 57.5872 160.727 57.0212ZM182.432 49.6651C182.998 50.0425 183.564 50.6085 183.942 51.3629C184.32 52.1172 184.508 52.8718 184.508 53.815V58.3421C184.508 59.4739 183.564 60.4171 182.432 60.4171H181.3C181.111 60.4171 180.922 60.2284 180.922 60.0399V54.3809C180.922 53.815 180.734 53.2491 180.356 52.8719C179.978 52.4946 179.601 52.3059 179.035 52.3059C178.28 52.3059 177.714 52.4947 177.336 53.0606C176.958 53.6263 176.769 54.3809 176.769 55.324V58.3421C176.769 59.4739 175.826 60.4171 174.693 60.4171H173.75C173.56 60.4171 173.372 60.2284 173.372 60.0399V49.8538C173.372 49.6651 173.56 49.4766 173.75 49.4766H176.581C176.769 49.4766 176.958 49.6651 176.958 49.8538V50.6085C177.336 50.231 177.902 49.8538 178.468 49.6651C179.035 49.4766 179.601 49.2879 180.356 49.2879C180.922 49.0995 181.677 49.2879 182.432 49.6651ZM106.933 46.647C108.443 47.7789 107.877 50.0425 106.179 50.231L105.801 50.4197C105.612 50.4197 105.423 50.4197 105.423 50.231C105.235 49.6651 105.046 49.2879 104.669 49.0995C104.29 48.722 103.725 48.5335 103.159 48.5335C102.592 48.5335 102.214 48.722 101.837 48.9108C101.46 49.2878 101.271 49.4766 101.271 50.0425C101.271 50.4197 101.271 50.6085 101.46 50.7969C101.649 50.9857 101.837 51.1742 102.403 51.1742L105.423 51.9288C106.745 52.3059 107.688 52.6831 108.255 53.4378C109.009 54.1922 109.198 55.1353 109.198 56.2671C109.198 57.2103 109.009 58.1533 108.443 58.908C107.877 59.6624 107.122 60.2283 106.367 60.6056C105.423 60.983 104.48 61.1714 103.347 61.1714C101.649 61.1714 100.327 60.7943 99.1951 60.0399C98.0622 59.2852 97.4963 58.342 97.3068 57.2103C97.3068 57.0218 97.3068 56.8331 97.4963 56.8331L100.516 56.2671C100.704 56.2671 100.894 56.2671 100.894 56.4559C101.271 57.7762 102.214 58.3421 103.536 58.3421C104.102 58.3421 104.669 58.1533 105.046 57.9649C105.423 57.7762 105.612 57.399 105.612 56.8331C105.612 56.4559 105.423 56.2671 105.235 56.0784C105.046 55.8899 104.669 55.7012 104.29 55.7012L101.271 55.1353C100.138 54.9469 99.1951 54.3809 98.4397 53.815C97.6848 53.2491 97.3068 52.1172 97.3068 50.9857C97.3068 50.0425 97.4963 49.2879 98.0622 48.5335C98.6283 47.7789 99.1951 47.2129 100.138 46.8357C101.082 46.4585 102.026 46.2698 103.159 46.2698C104.48 45.5155 105.801 45.8927 106.933 46.647ZM197.344 62.1151C196.778 62.8694 196.023 63.4354 195.079 64.0013C194.135 64.3785 193.003 64.5672 191.87 64.5672C190.549 64.5672 189.417 64.3785 188.473 63.8128C187.907 63.4354 187.341 63.0582 186.963 62.6811C186.585 62.3038 186.774 61.7379 187.151 61.3607L189.039 60.4173C189.228 60.4173 189.417 60.4173 189.606 60.4173C189.983 60.7948 190.36 60.9832 190.549 61.172C190.927 61.3607 191.304 61.5492 191.87 61.5492C192.626 61.5492 193.38 61.3607 193.758 60.7948C194.324 60.4173 194.513 59.663 194.513 58.9086V58.5311C193.758 59.2858 192.626 59.663 191.115 59.663C190.171 59.663 189.228 59.4743 188.473 58.9086C187.718 58.5311 186.963 57.7767 186.585 57.022C186.019 56.2677 185.831 55.3246 185.831 54.1927C185.831 53.2497 186.019 52.3065 186.585 51.5518C187.151 50.7975 187.718 50.0429 188.473 49.6657C189.228 49.2884 190.171 48.9112 191.115 48.9112C192.436 48.9112 193.569 49.2884 194.513 50.0429V49.8544C194.513 49.6657 194.702 49.4769 194.89 49.4769H197.532C197.722 49.4769 197.911 49.6657 197.911 49.8544V59.2858C198.288 60.4173 197.911 61.3607 197.344 62.1151ZM193.946 56.2677C194.513 55.7018 194.702 55.1358 194.702 54.3812C194.702 53.6269 194.513 53.0609 193.946 52.6837C193.38 52.1178 192.814 51.929 192.059 51.929C191.304 51.929 190.738 52.1178 190.172 52.6837C189.606 53.0609 189.417 53.8156 189.417 54.5699C189.417 55.3246 189.606 55.8903 190.172 56.4562C190.738 57.022 191.304 57.2108 192.059 57.2108C193.003 57.022 193.569 56.6449 193.946 56.2677ZM99.0062 39.8568V33.0662C99.0062 32.8779 98.8168 32.8779 98.8168 33.0662L95.6091 39.4796C95.4197 40.0455 94.8536 40.0455 94.2877 40.0455H93.7208C93.1548 40.0455 92.7776 39.6683 92.4003 39.2911L89.1913 33.255C89.1913 33.0662 89.0028 33.255 89.0028 33.255V38.3477C89.0028 39.4796 88.0585 40.4227 86.9264 40.4227H85.794C85.6051 40.4227 85.4165 40.2342 85.4165 40.0455V26.4645C85.4165 25.8986 85.9825 25.3329 86.5485 25.3329H88.814C89.0028 25.3329 89.1913 25.5214 89.3799 25.5214L93.7208 33.6322C93.9102 33.8209 94.2877 33.8209 94.4763 33.6322L98.8168 25.5214C98.8168 25.3329 99.0062 25.3329 99.3837 25.3329H101.46C102.026 25.3329 102.593 25.8986 102.593 26.4645V38.3477C102.593 39.4796 101.649 40.4227 100.516 40.4227H99.3837C99.1951 40.2342 99.0062 40.0455 99.0062 39.8568Z" fill="#FE5000"/>
<path d="M83.7176 1.6189C90.3242 17.6524 103.725 19.1611 108.821 18.9726C109.198 18.9726 109.387 19.5386 109.009 19.7271C104.291 21.802 91.4562 25.9519 79.5647 13.3137C79.3761 13.1252 79.1876 13.1252 78.9988 13.3137C65.5975 31.2334 77.3001 35.5718 81.075 36.5148C81.4521 36.5148 81.641 37.0808 81.2636 37.2693C76.9228 39.7214 58.2365 48.2096 45.4015 24.4429C45.2127 24.2541 44.8352 24.0657 44.6464 24.2541C28.4144 38.7782 9.3506 40.2873 0.856896 40.2873C0.479439 40.2873 0.290594 39.5329 0.856896 39.3442C11.0492 37.458 35.3978 30.2903 46.9115 1.05295C47.2889 0.109915 48.6101 0.298286 48.799 1.24144C49.5538 7.65502 51.6301 18.9726 61.2565 25.0087C61.4449 25.1972 61.8226 25.0088 61.8226 24.82C65.7864 11.9935 76.7342 3.6938 81.2636 0.864222C82.019 0.298284 83.3396 0.675743 83.7176 1.6189ZM71.6376 34.8171C71.6376 34.4399 71.4487 34.0625 71.2601 33.874C71.0713 33.6853 70.6938 33.4968 70.3165 33.4968C69.9388 33.4968 69.5613 33.6853 69.3725 33.874C69.1838 34.0625 68.995 34.4399 68.995 34.8171C68.995 35.1942 69.1838 35.5718 69.3725 35.7602C69.5613 35.9489 69.9388 36.1374 70.3165 36.1374C71.1297 36.1374 71.6376 35.6236 71.6376 34.8171Z" fill="url(#paint0_linear_806_724)"/>
</g>
<defs>
<linearGradient id="paint0_linear_806_724" x1="-8.34436" y1="21.0553" x2="120.628" y2="21.0553" gradientUnits="userSpaceOnUse">
<stop stop-color="#55C0E8"/>
<stop offset="1" stop-color="#1B459C"/>
</linearGradient>
<clipPath id="clip0_806_724">
<rect width="212" height="65" fill="white"/>
</clipPath>
</defs>
</svg>
